<?xml version="1.0" encoding="UTF-8"?>
<svg version="1.1" xmlns="http://www.w3.org/2000/svg" width="1536" height="2048">
<path d="M0 0 C506.88 0 1013.76 0 1536 0 C1536 675.84 1536 1351.68 1536 2048 C1029.12 2048 522.24 2048 0 2048 C0 1372.16 0 696.32 0 0 Z " fill="#FEFEFE" transform="translate(0,0)"/>
<path d="M0 0 C13.79115677 10.69245025 25.8744263 27.20004874 28.34106445 44.9050293 C31.12516542 67.92941947 27.70963547 89.11911123 13.50390625 107.99609375 C12.37792137 109.32566072 11.23328231 110.63976589 10.06640625 111.93359375 C9.32390625 112.81337891 9.32390625 112.81337891 8.56640625 113.7109375 C-1.66042467 124.98601859 -17.82152333 133.22957298 -32.97875977 134.1105957 C-36.48461449 134.17754918 -39.98970547 134.21845538 -43.49609375 134.24609375 C-44.69556641 134.27509766 -45.89503906 134.30410156 -47.13085938 134.33398438 C-63.72484054 134.45040194 -77.33780608 128.37945106 -89.93359375 117.93359375 C-90.74183594 117.32773438 -91.55007813 116.721875 -92.3828125 116.09765625 C-105.35779753 105.08978228 -112.80625396 87.52275308 -114.93359375 70.93359375 C-116.2540248 49.7001267 -112.89787175 29.68705907 -98.83203125 13.01171875 C-98.20554687 12.3259375 -97.5790625 11.64015625 -96.93359375 10.93359375 C-96.18335938 10.1034375 -95.433125 9.27328125 -94.66015625 8.41796875 C-69.60815399 -17.97751628 -29.5254944 -20.79758527 0 0 Z " fill="#010101" transform="translate(1351.93359375,939.06640625)"/>
<path d="M0 0 C1.13590576 -0.0103125 2.27181152 -0.020625 3.44213867 -0.03125 C14.0846942 0.07963402 23.92626267 2.086632 33.4375 6.9375 C34.44478149 7.44700195 34.44478149 7.44700195 35.47241211 7.96679688 C42.51413443 11.72148973 47.93673616 16.7254933 53.4375 22.4375 C54.10136719 23.08203125 54.76523437 23.7265625 55.44921875 24.390625 C70.27326467 39.71435786 72.94390079 59.50857493 72.71484375 79.84375 C72.23689146 96.56494647 66.15317245 110.67098115 55.4375 123.4375 C54.715625 124.4275 53.99375 125.4175 53.25 126.4375 C45.98689165 134.95450001 35.72909517 140.48795794 25.4375 144.4375 C24.56480469 144.7778125 23.69210937 145.118125 22.79296875 145.46875 C5.93088497 150.80141486 -16.02857154 148.89073582 -31.8125 141.25 C-50.06847081 131.49988375 -62.63681553 115.90725866 -68.87109375 96.25390625 C-70.70603943 88.77935353 -70.77748993 81.40407696 -70.8125 73.75 C-70.833125 72.64205078 -70.85375 71.53410156 -70.875 70.39257812 C-70.92547528 59.5971781 -68.88390132 49.89916298 -63.875 40.3125 C-63.52542236 39.63364746 -63.17584473 38.95479492 -62.81567383 38.25537109 C-54.69336637 22.95025644 -41.99525209 11.93785208 -26.5625 4.4375 C-25.62792969 3.98117187 -24.69335938 3.52484375 -23.73046875 3.0546875 C-15.99275141 0.02734529 -8.22296385 0.06231626 0 0 Z " fill="#010101" transform="translate(342.5625,925.5625)"/>
<path d="M0 0 C71.37922297 0 71.37922297 0 94.6171875 21.5625 C108.69045916 35.95876479 114.55876279 53.7385804 114.48999023 73.50146484 C113.93823029 93.3884455 105.98316609 110.7906997 91.63232422 124.52929688 C65.55648569 148.02329198 34.87726649 143 0 143 C0 95.81 0 48.62 0 0 Z " fill="#020202" transform="translate(705,928)"/>
<path d="M0 0 C10.89 0 21.78 0 33 0 C42.71069748 11.31750354 42.71069748 11.31750354 44.953125 16.515625 C47.79089234 22.69280372 51.19037666 28.21636548 54.9375 33.875 C56.09248167 35.68629574 57.24347548 37.50014006 58.390625 39.31640625 C62.3085706 45.49095864 66.24611796 51.65288806 70.1875 57.8125 C70.80423584 58.77720215 71.42097168 59.7419043 72.05639648 60.73583984 C77.67276206 69.51136502 83.33967565 78.25222601 89 87 C89.33 58.29 89.66 29.58 90 0 C100.89 0 111.78 0 123 0 C123 47.19 123 94.38 123 143 C112.11 143 101.22 143 90 143 C85.36244817 136.37492596 80.86540223 129.76932312 76.5625 122.9375 C75.33236603 120.99457967 74.10188371 119.05187985 72.87109375 117.109375 C72.23671387 116.10712891 71.60233398 115.10488281 70.94873047 114.07226562 C67.68961427 108.93411501 64.40713749 103.81096408 61.125 98.6875 C60.46741699 97.66035889 59.80983398 96.63321777 59.13232422 95.57495117 C55.97558696 90.64441727 52.81742214 85.71480089 49.65765381 80.78620911 C48.54806581 79.05529467 47.43877704 77.32418887 46.32958984 75.59301758 C44.93339786 73.41407334 43.53661672 71.23550647 42.13916016 69.05737305 C41.50929199 68.07422119 40.87942383 67.09106934 40.23046875 66.078125 C39.67770264 65.21606445 39.12493652 64.35400391 38.55541992 63.46582031 C37.00006186 61.00009807 35.49990513 58.49984188 34 56 C33.67 84.71 33.34 113.42 33 143 C22.11 143 11.22 143 0 143 C0 95.81 0 48.62 0 0 Z " fill="#030303" transform="translate(1100,928)"/>
<path d="M0 0 C10.23 0 20.46 0 31 0 C36.61268089 12.8289849 41.9431468 25.74308791 47.125 38.75 C47.61602707 39.98251495 47.61602707 39.98251495 48.11697388 41.2399292 C48.45228119 42.08162659 48.7875885 42.92332397 49.13305664 43.79052734 C49.84255163 45.57131259 50.55210741 47.35207362 51.26171875 49.1328125 C51.62799881 50.05198456 51.99427887 50.97115662 52.37165833 51.91818237 C57.27537095 64.2126624 62.23098836 76.48627314 67.18508148 88.76051331 C67.92516539 90.59443495 68.6648868 92.42850287 69.40460205 94.26257324 C70.81990172 97.77165119 72.23604911 101.28038603 73.65234375 104.7890625 C74.10240784 105.90535034 74.55247192 107.02163818 75.01617432 108.17175293 C77.21734768 113.62310649 79.43604955 119.06613746 81.69189453 124.49511719 C82.11386612 125.51374847 82.53583771 126.53237976 82.97059631 127.58187866 C83.76354838 129.49250789 84.56086043 131.40133557 85.36326599 133.30801392 C85.712043 134.14915741 86.06082001 134.9903009 86.42016602 135.85693359 C86.72680679 136.58866791 87.03344757 137.32040222 87.34938049 138.0743103 C88 140 88 140 88 143 C76.45 143 64.9 143 53 143 C51.35 138.58625 49.7 134.1725 48 129.625 C47.47792969 128.23361816 46.95585938 126.84223633 46.41796875 125.40869141 C46.01191406 124.31733887 45.60585938 123.22598633 45.1875 122.1015625 C44.76855469 120.98088379 44.34960938 119.86020508 43.91796875 118.70556641 C43 116 43 116 43 114 C24.85 114 6.7 114 -12 114 C-12.33 115.65 -12.66 117.3 -13 119 C-13.65296004 120.9252906 -14.34478042 122.83766112 -15.06640625 124.73828125 C-15.42935791 125.70032471 -15.79230957 126.66236816 -16.16625977 127.65356445 C-16.62701904 128.86101318 -17.08777832 130.06846191 -17.5625 131.3125 C-19.026875 135.169375 -20.49125 139.02625 -22 143 C-33.55 143 -45.1 143 -57 143 C-55.25682432 137.77047295 -53.56298392 132.71972782 -51.52661133 127.63037109 C-51.0573674 126.45418716 -50.58812347 125.27800323 -50.10466003 124.06617737 C-49.59720187 122.80189672 -49.08965645 121.53765109 -48.58203125 120.2734375 C-48.04675531 118.9351685 -47.51166962 117.5968234 -46.97676086 116.25840759 C-45.55282392 112.69779625 -44.12540148 109.13859248 -42.69705963 105.57974625 C-41.80918787 103.36674459 -40.92234085 101.15333502 -40.03582764 98.93978882 C-32.52250363 80.18082785 -24.95582039 61.44545921 -17.24926758 42.76489258 C-11.38756085 28.55368626 -5.68482553 14.28312416 0 0 Z " fill="#010101" transform="translate(564,928)"/>
<path d="M0 0 C27.06 0 54.12 0 82 0 C82 9.57 82 19.14 82 29 C65.5 29 49 29 32 29 C32 38.24 32 47.48 32 57 C47.84 57 63.68 57 80 57 C80 66.57 80 76.14 80 86 C64.16 86 48.32 86 32 86 C32 95.24 32 104.48 32 114 C48.5 114 65 114 82 114 C82 123.57 82 133.14 82 143 C54.94 143 27.88 143 0 143 C0 95.81 0 48.62 0 0 Z " fill="#030303" transform="translate(1000,928)"/>
<path d="M0 0 C-0.59654026 3.78995975 -1.70067487 6.70356326 -3.50390625 10.08203125 C-3.99697266 11.01337891 -4.49003906 11.94472656 -4.99804688 12.90429688 C-5.77245117 14.34385742 -5.77245117 14.34385742 -6.5625 15.8125 C-7.08263672 16.79154297 -7.60277344 17.77058594 -8.13867188 18.77929688 C-9.42009168 21.1893066 -10.70734711 23.59600219 -12 26 C-17.62413767 24.98266452 -22.42546215 22.70582731 -27.625 20.375 C-35.10036729 17.32947999 -43.91368976 16.49451728 -51.5625 19.3125 C-55.61282191 22.00305123 -55.61282191 22.00305123 -57.5390625 26.26953125 C-57.58160156 27.52830078 -57.58160156 27.52830078 -57.625 28.8125 C-57.67914063 29.64394531 -57.73328125 30.47539063 -57.7890625 31.33203125 C-56.50893378 35.66038727 -53.6530182 37.65033225 -50 40 C-43.95613777 43.16730159 -37.75536897 45.99248233 -31.54443359 48.81469727 C-17.687785 55.14338073 -3.55044073 62.88740913 2.66015625 77.6953125 C4.27893514 82.24620921 4.49870077 86.51455418 4.4375 91.3125 C4.42992676 92.14700684 4.42235352 92.98151367 4.41455078 93.84130859 C4.23720358 100.50671552 3.15338917 106.05897527 0 112 C-0.40089844 112.78503906 -0.80179687 113.57007813 -1.21484375 114.37890625 C-7.87436613 125.78695763 -19.61778336 130.82853261 -31.76708984 134.53979492 C-54.35206378 139.19458126 -77.79743418 134.11344654 -97 122 C-99.06695247 120.39562655 -101.02837774 118.72329957 -103 117 C-100.05624456 110.55472493 -96.59996133 104.43292356 -92.9375 98.375 C-92.5142041 97.65183594 -92.0909082 96.92867187 -91.65478516 96.18359375 C-90.40234375 94.1484375 -90.40234375 94.1484375 -88 91 C-83.49193748 91 -82.53558412 91.7022254 -78.9375 94.1875 C-69.64636641 100.32761912 -61.28769427 104.16807197 -50.125 104.25 C-49.43019531 104.270625 -48.73539063 104.29125 -48.01953125 104.3125 C-42.43023961 104.35460389 -38.49167616 103.06207682 -34.1875 99.5 C-32.27417254 97.08316532 -31.96828427 94.76439745 -31.5625 91.75 C-32.02487018 87.78682703 -32.91584686 85.70251114 -35.66796875 82.80859375 C-40.51435845 79.05000341 -46.24051334 76.6594082 -51.76513672 74.05908203 C-67.1119873 66.78634467 -82.5477682 58.60693215 -89.37817383 42.01660156 C-92.2732784 32.62768763 -91.18271777 21.08827707 -87.0625 12.3125 C-80.47760344 1.09183626 -71.06736557 -6.66935835 -58.8203125 -11.16796875 C-38.83319449 -15.52099138 -17.18661252 -10.70285437 0 0 Z " fill="#020202" transform="translate(258,938)"/>
<path d="M0 0 C1.66289063 0.58007812 1.66289063 0.58007812 3.359375 1.171875 C9.23363184 3.32488316 14.70018282 5.67220782 20 9 C19.31001419 12.36410994 18.04326424 15.14435115 16.49609375 18.203125 C16.00302734 19.1828125 15.50996094 20.1625 15.00195312 21.171875 C14.22754883 22.69554687 14.22754883 22.69554687 13.4375 24.25 C12.91736328 25.28125 12.39722656 26.3125 11.86132812 27.375 C10.57780042 29.91850444 9.29057341 32.4600653 8 35 C2.37586233 33.98266452 -2.42546215 31.70582731 -7.625 29.375 C-14.78316961 26.45870868 -23.66466433 25.33154444 -31 28.3125 C-34.35790512 30.20132163 -36.28685306 31.57370611 -38 35 C-38.42035908 39.72903962 -37.79460992 42.18168035 -35 46 C-32.31728349 48.02407722 -32.31728349 48.02407722 -29.0625 49.75 C-28.46276367 50.08507568 -27.86302734 50.42015137 -27.24511719 50.76538086 C-21.88740967 53.68305759 -16.33648898 56.12097815 -10.75 58.5625 C-3.55910176 61.7062089 2.86738286 65.03068343 9 70 C10.051875 70.763125 11.10375 71.52625 12.1875 72.3125 C18.30383575 78.15699861 23.94429279 85.45114003 24.265625 94.14453125 C24.27090401 95.7005206 24.26541789 97.25657809 24.25 98.8125 C24.25773438 99.58142578 24.26546875 100.35035156 24.2734375 101.14257812 C24.23546296 112.39253651 20.65047185 122.39765 13 130.75 C1.07764675 141.92227142 -15.61114427 144.58377661 -31.375 144.4375 C-32.55819824 144.42775146 -33.74139648 144.41800293 -34.96044922 144.40795898 C-52.92913705 144.0439456 -69.44275351 137.99213535 -83 126 C-81.62938601 122.33057139 -79.96645212 119.06140503 -77.9609375 115.69921875 C-77.38085938 114.72275391 -76.80078125 113.74628906 -76.203125 112.74023438 C-75.59984375 111.73283203 -74.9965625 110.72542969 -74.375 109.6875 C-73.76398437 108.66076172 -73.15296875 107.63402344 -72.5234375 106.57617188 C-71.01880606 104.04886125 -69.5109006 101.52356601 -68 99 C-64.75462054 99.73417433 -62.70862158 100.73298329 -60 102.6875 C-50.3408414 109.30818156 -41.79617317 113.1628418 -30.0625 113.25 C-29.37220703 113.270625 -28.68191406 113.29125 -27.97070312 113.3125 C-23.21013511 113.34859909 -20.028541 112.52304488 -16 110 C-13.22270595 106.78418584 -12.11273609 104.70146898 -11.4375 100.5 C-12.13620583 96.15249704 -13.78846204 93.86166166 -17 91 C-20.53894179 88.75750949 -24.24449888 86.91326836 -28 85.0625 C-30.07433984 84.00805068 -32.14855938 82.95336467 -34.22265625 81.8984375 C-36.14805738 80.93153436 -38.07380259 79.96531586 -40 79 C-53.91616134 71.98514998 -63.66501874 64.67048292 -70 50 C-72.69310723 38.7155014 -71.05741506 28.13150365 -65.33984375 18.08203125 C-58.67059208 8.15347383 -48.51091512 0.1706983 -36.67553711 -2.53051758 C-24.93673766 -4.59035072 -11.19471221 -4.0300964 0 0 Z " fill="#020202" transform="translate(960,929)"/>
<path d="M0 0 C27.39 0 54.78 0 83 0 C83 9.57 83 19.14 83 29 C66.5 29 50 29 33 29 C33 38.24 33 47.48 33 57 C48.18 57 63.36 57 79 57 C79 66.57 79 76.14 79 86 C63.82 86 48.64 86 33 86 C33 104.81 33 123.62 33 143 C22.11 143 11.22 143 0 143 C0 95.81 0 48.62 0 0 Z " fill="#030303" transform="translate(430,928)"/>
<path d="M0 0 C9.73662935 6.09896671 16.05757438 15.23083759 19.1015625 26.31640625 C19.6257276 29.08018589 19.94100835 31.53193859 20.1015625 34.31640625 C20.17761719 35.33605469 20.25367188 36.35570312 20.33203125 37.40625 C20.90820344 51.24995481 16.74672918 63.56781345 7.5859375 74.05078125 C0.93861964 80.56902497 -7.96445753 82.52718531 -17.0234375 82.75390625 C-28.67862078 82.34360277 -36.58474542 78.96757853 -44.65234375 70.46875 C-53.83933119 59.25555981 -54.78731699 45.27439609 -53.66015625 31.37890625 C-52.10458506 20.56847211 -46.81758731 9.51271555 -37.953125 2.85546875 C-27.31868346 -4.13981029 -11.65768686 -5.74872187 0 0 Z " fill="#FCFCFC" transform="translate(1325.8984375,959.68359375)"/>
<path d="M0 0 C6.15965225 4.1566884 10.44662983 9.52403542 14 16 C14.41507812 16.7528125 14.83015625 17.505625 15.2578125 18.28125 C20.27452808 29.36713897 19.54419546 44.5292593 16 56 C15.11360518 58.09442433 14.158112 60.16142285 13.125 62.1875 C12.63257813 63.17105469 12.14015625 64.15460938 11.6328125 65.16796875 C8.83386782 70.02259768 6.03427276 73.34049805 1.1875 76.1875 C-0.02873047 76.92033203 -0.02873047 76.92033203 -1.26953125 77.66796875 C-10.09398519 81.97288834 -20.36299354 82.32740129 -29.91015625 80.41796875 C-38.63990888 77.38814969 -46.55020529 70.30723782 -50.95043945 62.19506836 C-54.58905294 54.58521168 -55.55460542 47.04422929 -55.5 38.6875 C-55.49500488 37.68001709 -55.49000977 36.67253418 -55.48486328 35.63452148 C-55.19228938 23.10126098 -51.13523823 13.37594506 -42.37890625 4.32421875 C-31.06403114 -6.20671582 -13.47489182 -7.54058516 0 0 Z " fill="#FDFDFD" transform="translate(362,961)"/>
<path d="M0 0 C10.89 0 21.78 0 33 0 C33 47.19 33 94.38 33 143 C22.11 143 11.22 143 0 143 C0 95.81 0 48.62 0 0 Z " fill="#030303" transform="translate(833,928)"/>
<path d="M0 0 C12.74463165 0 21.96517866 1.17874219 32 9 C41.21015048 18.48010316 45.91737986 28.63610241 46.3125 41.8125 C46.0543056 53.76538179 42.45005634 63.68940845 34.625 72.75 C23.1741426 82.56502063 15.83762506 85 0 85 C0 56.95 0 28.9 0 0 Z " fill="#FCFCFC" transform="translate(738,957)"/>
<path d="M0 0 C3.39279565 1.69639783 3.96382885 5.64707805 5.22265625 9.05078125 C5.52819931 9.86113327 5.83374237 10.67148529 6.14854431 11.50639343 C6.79480283 13.22429386 7.43765754 14.94347798 8.07739258 16.66381836 C9.05547377 19.29360841 10.04335412 21.91954153 11.03320312 24.54492188 C11.65943373 26.21332424 12.28510317 27.88193737 12.91015625 29.55078125 C13.20495377 30.33632889 13.49975128 31.12187653 13.80348206 31.93122864 C14.07724167 32.66846664 14.35100128 33.40570465 14.63305664 34.1652832 C14.87351212 34.81068558 15.11396759 35.45608795 15.36170959 36.12104797 C16.01605389 38.04725825 16.50660525 40.02642099 17 42 C6.44 42 -4.12 42 -15 42 C-13.875 35.25 -13.875 35.25 -12.60131836 32.01416016 C-12.18099586 30.93371933 -12.18099586 30.93371933 -11.75218201 29.83145142 C-11.45111038 29.07496307 -11.15003876 28.31847473 -10.83984375 27.5390625 C-10.53051407 26.74849457 -10.22118439 25.95792664 -9.90248108 25.1434021 C-8.9196015 22.63508858 -7.92868752 20.13004057 -6.9375 17.625 C-6.26704393 15.91817849 -5.59711633 14.21114929 -4.92773438 12.50390625 C-3.29126391 8.3335085 -1.64758357 4.16601915 0 0 Z " fill="#F6F6F6" transform="translate(579,972)"/>
</svg>
