<svg xmlns="http://www.w3.org/2000/svg" xmlns:xlink="http://www.w3.org/1999/xlink" width="154" zoomAndPan="magnify" viewBox="0 0 115.5 30.000001" height="40" preserveAspectRatio="xMidYMid meet" version="1.2"><defs/><g id="2eddb7257b"><g style="fill:#000000;fill-opacity:1;"><g transform="translate(2.413305, 19.088711)"><path style="stroke:none" d="M 5.640625 -13 C 6.328125 -13 7 -12.898438 7.65625 -12.703125 C 8.320312 -12.503906 8.816406 -12.304688 9.140625 -12.109375 L 9.59375 -11.796875 L 8.421875 -9.46875 C 8.328125 -9.53125 8.195312 -9.609375 8.03125 -9.703125 C 7.863281 -9.804688 7.550781 -9.941406 7.09375 -10.109375 C 6.644531 -10.273438 6.226562 -10.359375 5.84375 -10.359375 C 5.351562 -10.359375 4.972656 -10.253906 4.703125 -10.046875 C 4.441406 -9.835938 4.3125 -9.5625 4.3125 -9.21875 C 4.3125 -9.039062 4.375 -8.875 4.5 -8.71875 C 4.625 -8.570312 4.835938 -8.410156 5.140625 -8.234375 C 5.441406 -8.066406 5.703125 -7.929688 5.921875 -7.828125 C 6.148438 -7.734375 6.503906 -7.582031 6.984375 -7.375 C 7.804688 -7.019531 8.507812 -6.539062 9.09375 -5.9375 C 9.675781 -5.332031 9.96875 -4.648438 9.96875 -3.890625 C 9.96875 -3.148438 9.835938 -2.503906 9.578125 -1.953125 C 9.316406 -1.410156 8.953125 -0.984375 8.484375 -0.671875 C 8.023438 -0.367188 7.515625 -0.144531 6.953125 0 C 6.398438 0.15625 5.800781 0.234375 5.15625 0.234375 C 4.59375 0.234375 4.039062 0.175781 3.5 0.0625 C 2.96875 -0.0507812 2.519531 -0.191406 2.15625 -0.359375 C 1.800781 -0.535156 1.476562 -0.703125 1.1875 -0.859375 C 0.90625 -1.023438 0.695312 -1.164062 0.5625 -1.28125 L 0.359375 -1.453125 L 1.8125 -3.90625 C 1.9375 -3.800781 2.101562 -3.664062 2.3125 -3.5 C 2.53125 -3.34375 2.914062 -3.128906 3.46875 -2.859375 C 4.019531 -2.597656 4.507812 -2.46875 4.9375 -2.46875 C 6.164062 -2.46875 6.78125 -2.882812 6.78125 -3.71875 C 6.78125 -3.894531 6.734375 -4.054688 6.640625 -4.203125 C 6.554688 -4.347656 6.40625 -4.492188 6.1875 -4.640625 C 5.96875 -4.796875 5.769531 -4.914062 5.59375 -5 C 5.425781 -5.09375 5.148438 -5.226562 4.765625 -5.40625 C 4.378906 -5.59375 4.09375 -5.734375 3.90625 -5.828125 C 3.125 -6.203125 2.519531 -6.675781 2.09375 -7.25 C 1.675781 -7.820312 1.46875 -8.441406 1.46875 -9.109375 C 1.46875 -10.253906 1.890625 -11.1875 2.734375 -11.90625 C 3.585938 -12.632812 4.554688 -13 5.640625 -13 Z M 5.640625 -13 "/></g></g><g style="fill:#000000;fill-opacity:1;"><g transform="translate(12.815973, 19.088711)"><path style="stroke:none" d="M 0.359375 -6.390625 C 0.359375 -8.242188 0.988281 -9.804688 2.25 -11.078125 C 3.507812 -12.359375 5.023438 -13 6.796875 -13 C 8.578125 -13 10.09375 -12.363281 11.34375 -11.09375 C 12.59375 -9.820312 13.21875 -8.253906 13.21875 -6.390625 C 13.21875 -4.523438 12.601562 -2.953125 11.375 -1.671875 C 10.144531 -0.398438 8.617188 0.234375 6.796875 0.234375 C 4.929688 0.234375 3.390625 -0.394531 2.171875 -1.65625 C 0.960938 -2.925781 0.359375 -4.503906 0.359375 -6.390625 Z M 3.5 -6.390625 C 3.5 -5.722656 3.601562 -5.113281 3.8125 -4.5625 C 4.019531 -4.007812 4.378906 -3.539062 4.890625 -3.15625 C 5.410156 -2.769531 6.046875 -2.578125 6.796875 -2.578125 C 7.878906 -2.578125 8.695312 -2.945312 9.25 -3.6875 C 9.800781 -4.4375 10.078125 -5.335938 10.078125 -6.390625 C 10.078125 -7.429688 9.796875 -8.328125 9.234375 -9.078125 C 8.671875 -9.828125 7.859375 -10.203125 6.796875 -10.203125 C 5.742188 -10.203125 4.929688 -9.828125 4.359375 -9.078125 C 3.785156 -8.328125 3.5 -7.429688 3.5 -6.390625 Z M 3.5 -6.390625 "/></g></g><g style="fill:#000000;fill-opacity:1;"><g transform="translate(26.392062, 19.088711)"><path style="stroke:none" d="M 8.3125 -12.78125 L 8.3125 -10.21875 L 3.84375 -10.21875 L 3.84375 -7.6875 L 7.96875 -7.6875 L 7.96875 -5.125 L 3.84375 -5.125 L 3.84375 0 L 0.921875 0 L 0.921875 -12.78125 Z M 8.3125 -12.78125 "/></g></g><g style="fill:#000000;fill-opacity:1;"><g transform="translate(34.627456, 19.088711)"><path style="stroke:none" d="M 7.421875 -12.78125 L 12.578125 0 L 9.453125 0 L 8.5 -2.5625 L 3.640625 -2.5625 L 2.6875 0 L -0.4375 0 L 4.71875 -12.78125 Z M 7.515625 -5.109375 L 6.078125 -8.828125 L 6.046875 -8.828125 L 4.625 -5.109375 Z M 7.515625 -5.109375 "/></g></g><g style="fill:#000000;fill-opacity:1;"><g transform="translate(46.763893, 19.088711)"><path style="stroke:none" d=""/></g></g><g style="fill:#000000;fill-opacity:1;"><g transform="translate(50.989974, 19.088711)"><path style="stroke:none" d="M 0.921875 -12.78125 L 4.625 -12.78125 C 6.40625 -12.78125 7.925781 -12.171875 9.1875 -10.953125 C 10.445312 -9.742188 11.078125 -8.222656 11.078125 -6.390625 C 11.078125 -4.554688 10.445312 -3.03125 9.1875 -1.8125 C 7.9375 -0.601562 6.414062 0 4.625 0 L 0.921875 0 Z M 3.84375 -2.59375 L 4.296875 -2.59375 C 5.359375 -2.59375 6.222656 -2.953125 6.890625 -3.671875 C 7.566406 -4.390625 7.910156 -5.289062 7.921875 -6.375 C 7.921875 -7.457031 7.582031 -8.359375 6.90625 -9.078125 C 6.238281 -9.804688 5.367188 -10.171875 4.296875 -10.171875 L 3.84375 -10.171875 Z M 3.84375 -2.59375 "/></g></g><g style="fill:#000000;fill-opacity:1;"><g transform="translate(62.414327, 19.088711)"><path style="stroke:none" d="M 3.84375 -12.78125 L 3.84375 0 L 0.921875 0 L 0.921875 -12.78125 Z M 3.84375 -12.78125 "/></g></g><g style="fill:#000000;fill-opacity:1;"><g transform="translate(66.872583, 19.088711)"><path style="stroke:none" d="M 5.640625 -13 C 6.328125 -13 7 -12.898438 7.65625 -12.703125 C 8.320312 -12.503906 8.816406 -12.304688 9.140625 -12.109375 L 9.59375 -11.796875 L 8.421875 -9.46875 C 8.328125 -9.53125 8.195312 -9.609375 8.03125 -9.703125 C 7.863281 -9.804688 7.550781 -9.941406 7.09375 -10.109375 C 6.644531 -10.273438 6.226562 -10.359375 5.84375 -10.359375 C 5.351562 -10.359375 4.972656 -10.253906 4.703125 -10.046875 C 4.441406 -9.835938 4.3125 -9.5625 4.3125 -9.21875 C 4.3125 -9.039062 4.375 -8.875 4.5 -8.71875 C 4.625 -8.570312 4.835938 -8.410156 5.140625 -8.234375 C 5.441406 -8.066406 5.703125 -7.929688 5.921875 -7.828125 C 6.148438 -7.734375 6.503906 -7.582031 6.984375 -7.375 C 7.804688 -7.019531 8.507812 -6.539062 9.09375 -5.9375 C 9.675781 -5.332031 9.96875 -4.648438 9.96875 -3.890625 C 9.96875 -3.148438 9.835938 -2.503906 9.578125 -1.953125 C 9.316406 -1.410156 8.953125 -0.984375 8.484375 -0.671875 C 8.023438 -0.367188 7.515625 -0.144531 6.953125 0 C 6.398438 0.15625 5.800781 0.234375 5.15625 0.234375 C 4.59375 0.234375 4.039062 0.175781 3.5 0.0625 C 2.96875 -0.0507812 2.519531 -0.191406 2.15625 -0.359375 C 1.800781 -0.535156 1.476562 -0.703125 1.1875 -0.859375 C 0.90625 -1.023438 0.695312 -1.164062 0.5625 -1.28125 L 0.359375 -1.453125 L 1.8125 -3.90625 C 1.9375 -3.800781 2.101562 -3.664062 2.3125 -3.5 C 2.53125 -3.34375 2.914062 -3.128906 3.46875 -2.859375 C 4.019531 -2.597656 4.507812 -2.46875 4.9375 -2.46875 C 6.164062 -2.46875 6.78125 -2.882812 6.78125 -3.71875 C 6.78125 -3.894531 6.734375 -4.054688 6.640625 -4.203125 C 6.554688 -4.347656 6.40625 -4.492188 6.1875 -4.640625 C 5.96875 -4.796875 5.769531 -4.914062 5.59375 -5 C 5.425781 -5.09375 5.148438 -5.226562 4.765625 -5.40625 C 4.378906 -5.59375 4.09375 -5.734375 3.90625 -5.828125 C 3.125 -6.203125 2.519531 -6.675781 2.09375 -7.25 C 1.675781 -7.820312 1.46875 -8.441406 1.46875 -9.109375 C 1.46875 -10.253906 1.890625 -11.1875 2.734375 -11.90625 C 3.585938 -12.632812 4.554688 -13 5.640625 -13 Z M 5.640625 -13 "/></g></g><g style="fill:#000000;fill-opacity:1;"><g transform="translate(77.275252, 19.088711)"><path style="stroke:none" d="M 8.234375 -12.78125 L 8.234375 -10.21875 L 3.84375 -10.21875 L 3.84375 -7.6875 L 8.046875 -7.6875 L 8.046875 -5.125 L 3.84375 -5.125 L 3.84375 -2.5625 L 8.234375 -2.5625 L 8.234375 0 L 0.921875 0 L 0.921875 -12.78125 Z M 8.234375 -12.78125 "/></g></g><g style="fill:#000000;fill-opacity:1;"><g transform="translate(86.25374, 19.088711)"><path style="stroke:none" d="M 3.84375 -7.921875 L 3.84375 0 L 0.921875 0 L 0.921875 -12.78125 L 3.84375 -12.78125 L 8.921875 -4.84375 L 8.953125 -4.84375 L 8.953125 -12.78125 L 11.859375 -12.78125 L 11.859375 0 L 8.953125 0 L 3.875 -7.921875 Z M 3.84375 -7.921875 "/></g></g><g style="fill:#000000;fill-opacity:1;"><g transform="translate(99.040341, 19.088711)"><path style="stroke:none" d="M 0.359375 -6.390625 C 0.359375 -8.242188 0.988281 -9.804688 2.25 -11.078125 C 3.507812 -12.359375 5.023438 -13 6.796875 -13 C 8.578125 -13 10.09375 -12.363281 11.34375 -11.09375 C 12.59375 -9.820312 13.21875 -8.253906 13.21875 -6.390625 C 13.21875 -4.523438 12.601562 -2.953125 11.375 -1.671875 C 10.144531 -0.398438 8.617188 0.234375 6.796875 0.234375 C 4.929688 0.234375 3.390625 -0.394531 2.171875 -1.65625 C 0.960938 -2.925781 0.359375 -4.503906 0.359375 -6.390625 Z M 3.5 -6.390625 C 3.5 -5.722656 3.601562 -5.113281 3.8125 -4.5625 C 4.019531 -4.007812 4.378906 -3.539062 4.890625 -3.15625 C 5.410156 -2.769531 6.046875 -2.578125 6.796875 -2.578125 C 7.878906 -2.578125 8.695312 -2.945312 9.25 -3.6875 C 9.800781 -4.4375 10.078125 -5.335938 10.078125 -6.390625 C 10.078125 -7.429688 9.796875 -8.328125 9.234375 -9.078125 C 8.671875 -9.828125 7.859375 -10.203125 6.796875 -10.203125 C 5.742188 -10.203125 4.929688 -9.828125 4.359375 -9.078125 C 3.785156 -8.328125 3.5 -7.429688 3.5 -6.390625 Z M 3.5 -6.390625 "/></g></g></g></svg>