<svg xmlns="http://www.w3.org/2000/svg" xmlns:xlink="http://www.w3.org/1999/xlink" width="154" zoomAndPan="magnify" viewBox="0 0 115.5 30.000001" height="40" preserveAspectRatio="xMidYMid meet" version="1.2"><defs><clipPath id="9fa3ae9450"><path d="M 46.621094 0 L 68.394531 0 L 68.394531 29.03125 L 46.621094 29.03125 Z M 46.621094 0 "/></clipPath></defs><g id="e0938628b8"><g clip-rule="nonzero" clip-path="url(#9fa3ae9450)"><path style=" stroke:none;fill-rule:nonzero;fill:#fefefe;fill-opacity:1;" d="M 46.621094 0 C 53.804688 0 60.992188 0 68.394531 0 C 68.394531 9.582031 68.394531 19.160156 68.394531 29.03125 C 61.210938 29.03125 54.023438 29.03125 46.621094 29.03125 C 46.621094 19.453125 46.621094 9.871094 46.621094 0 Z M 46.621094 0 "/></g><path style=" stroke:none;fill-rule:nonzero;fill:#010101;fill-opacity:1;" d="M 65.785156 13.3125 C 65.980469 13.464844 66.152344 13.699219 66.1875 13.949219 C 66.226562 14.273438 66.179688 14.574219 65.976562 14.84375 C 65.960938 14.863281 65.945312 14.878906 65.929688 14.898438 C 65.917969 14.910156 65.917969 14.910156 65.90625 14.925781 C 65.761719 15.082031 65.535156 15.199219 65.316406 15.214844 C 65.269531 15.214844 65.21875 15.214844 65.167969 15.214844 C 65.152344 15.214844 65.136719 15.214844 65.117188 15.214844 C 64.882812 15.21875 64.691406 15.132812 64.511719 14.984375 C 64.5 14.976562 64.488281 14.964844 64.476562 14.957031 C 64.292969 14.800781 64.1875 14.554688 64.15625 14.316406 C 64.136719 14.015625 64.183594 13.734375 64.386719 13.496094 C 64.394531 13.488281 64.402344 13.476562 64.410156 13.46875 C 64.421875 13.457031 64.433594 13.445312 64.445312 13.429688 C 64.800781 13.058594 65.367188 13.015625 65.785156 13.3125 Z M 65.785156 13.3125 "/><path style=" stroke:none;fill-rule:nonzero;fill:#010101;fill-opacity:1;" d="M 51.476562 13.121094 C 51.492188 13.121094 51.507812 13.121094 51.527344 13.121094 C 51.675781 13.121094 51.816406 13.148438 51.949219 13.21875 C 51.964844 13.226562 51.964844 13.226562 51.980469 13.234375 C 52.078125 13.285156 52.15625 13.359375 52.234375 13.4375 C 52.242188 13.449219 52.253906 13.457031 52.261719 13.464844 C 52.472656 13.683594 52.511719 13.964844 52.507812 14.253906 C 52.5 14.488281 52.414062 14.691406 52.261719 14.871094 C 52.253906 14.882812 52.242188 14.898438 52.230469 14.914062 C 52.128906 15.035156 51.984375 15.113281 51.835938 15.167969 C 51.824219 15.171875 51.8125 15.179688 51.800781 15.183594 C 51.5625 15.257812 51.25 15.230469 51.027344 15.121094 C 50.765625 14.984375 50.589844 14.765625 50.5 14.484375 C 50.476562 14.378906 50.472656 14.273438 50.472656 14.167969 C 50.472656 14.152344 50.472656 14.132812 50.472656 14.117188 C 50.472656 13.964844 50.5 13.828125 50.570312 13.691406 C 50.578125 13.683594 50.582031 13.671875 50.585938 13.664062 C 50.703125 13.445312 50.882812 13.289062 51.101562 13.183594 C 51.113281 13.175781 51.128906 13.171875 51.140625 13.164062 C 51.25 13.121094 51.359375 13.121094 51.476562 13.121094 Z M 51.476562 13.121094 "/><path style=" stroke:none;fill-rule:nonzero;fill:#020202;fill-opacity:1;" d="M 56.613281 13.15625 C 57.625 13.15625 57.625 13.15625 57.957031 13.460938 C 58.15625 13.664062 58.238281 13.917969 58.238281 14.195312 C 58.230469 14.480469 58.117188 14.726562 57.914062 14.921875 C 57.542969 15.253906 57.109375 15.183594 56.613281 15.183594 C 56.613281 14.511719 56.613281 13.84375 56.613281 13.15625 Z M 56.613281 13.15625 "/><path style=" stroke:none;fill-rule:nonzero;fill:#030303;fill-opacity:1;" d="M 62.214844 13.15625 C 62.367188 13.15625 62.523438 13.15625 62.683594 13.15625 C 62.820312 13.316406 62.820312 13.316406 62.851562 13.390625 C 62.890625 13.476562 62.941406 13.554688 62.992188 13.636719 C 63.007812 13.660156 63.027344 13.6875 63.042969 13.710938 C 63.097656 13.800781 63.152344 13.886719 63.210938 13.976562 C 63.21875 13.988281 63.226562 14.003906 63.234375 14.015625 C 63.316406 14.140625 63.394531 14.265625 63.476562 14.386719 C 63.480469 13.980469 63.484375 13.574219 63.492188 13.15625 C 63.644531 13.15625 63.800781 13.15625 63.957031 13.15625 C 63.957031 13.824219 63.957031 14.492188 63.957031 15.183594 C 63.804688 15.183594 63.648438 15.183594 63.492188 15.183594 C 63.425781 15.089844 63.359375 14.996094 63.300781 14.898438 C 63.28125 14.871094 63.265625 14.84375 63.246094 14.816406 C 63.238281 14.800781 63.230469 14.785156 63.21875 14.773438 C 63.175781 14.699219 63.128906 14.625 63.082031 14.554688 C 63.070312 14.539062 63.0625 14.523438 63.050781 14.511719 C 63.007812 14.441406 62.964844 14.371094 62.917969 14.300781 C 62.902344 14.277344 62.886719 14.25 62.871094 14.226562 C 62.851562 14.195312 62.832031 14.164062 62.8125 14.132812 C 62.804688 14.121094 62.792969 14.105469 62.785156 14.09375 C 62.777344 14.078125 62.769531 14.066406 62.761719 14.054688 C 62.738281 14.019531 62.71875 13.984375 62.695312 13.949219 C 62.691406 14.355469 62.6875 14.761719 62.683594 15.183594 C 62.527344 15.183594 62.375 15.183594 62.214844 15.183594 C 62.214844 14.511719 62.214844 13.84375 62.214844 13.15625 Z M 62.214844 13.15625 "/><path style=" stroke:none;fill-rule:nonzero;fill:#010101;fill-opacity:1;" d="M 54.617188 13.15625 C 54.761719 13.15625 54.90625 13.15625 55.054688 13.15625 C 55.136719 13.335938 55.210938 13.519531 55.285156 13.703125 C 55.292969 13.722656 55.292969 13.722656 55.296875 13.738281 C 55.304688 13.75 55.308594 13.765625 55.3125 13.777344 C 55.324219 13.800781 55.332031 13.828125 55.34375 13.851562 C 55.347656 13.863281 55.351562 13.878906 55.359375 13.890625 C 55.429688 14.066406 55.5 14.238281 55.570312 14.414062 C 55.578125 14.441406 55.589844 14.464844 55.601562 14.492188 C 55.621094 14.542969 55.640625 14.589844 55.660156 14.640625 C 55.667969 14.65625 55.671875 14.671875 55.679688 14.6875 C 55.710938 14.765625 55.742188 14.84375 55.773438 14.921875 C 55.78125 14.933594 55.785156 14.949219 55.792969 14.964844 C 55.804688 14.992188 55.816406 15.019531 55.828125 15.046875 C 55.832031 15.058594 55.835938 15.070312 55.839844 15.082031 C 55.84375 15.089844 55.851562 15.101562 55.855469 15.113281 C 55.863281 15.140625 55.863281 15.140625 55.863281 15.183594 C 55.699219 15.183594 55.535156 15.183594 55.367188 15.183594 C 55.34375 15.121094 55.320312 15.058594 55.296875 14.992188 C 55.289062 14.972656 55.28125 14.953125 55.273438 14.933594 C 55.269531 14.917969 55.261719 14.902344 55.257812 14.886719 C 55.25 14.871094 55.246094 14.855469 55.238281 14.839844 C 55.226562 14.800781 55.226562 14.800781 55.226562 14.769531 C 54.96875 14.769531 54.710938 14.769531 54.445312 14.769531 C 54.441406 14.792969 54.4375 14.816406 54.433594 14.84375 C 54.421875 14.871094 54.414062 14.898438 54.402344 14.921875 C 54.398438 14.9375 54.390625 14.949219 54.386719 14.964844 C 54.378906 14.980469 54.375 15 54.367188 15.015625 C 54.347656 15.070312 54.324219 15.125 54.304688 15.183594 C 54.140625 15.183594 53.976562 15.183594 53.808594 15.183594 C 53.832031 15.109375 53.855469 15.035156 53.886719 14.964844 C 53.890625 14.949219 53.898438 14.929688 53.90625 14.914062 C 53.914062 14.894531 53.921875 14.878906 53.925781 14.859375 C 53.933594 14.839844 53.941406 14.824219 53.949219 14.804688 C 53.96875 14.753906 53.992188 14.703125 54.011719 14.652344 C 54.023438 14.621094 54.035156 14.589844 54.046875 14.558594 C 54.15625 14.292969 54.261719 14.027344 54.371094 13.761719 C 54.453125 13.558594 54.535156 13.359375 54.617188 13.15625 Z M 54.617188 13.15625 "/><path style=" stroke:none;fill-rule:nonzero;fill:#030303;fill-opacity:1;" d="M 60.796875 13.15625 C 61.179688 13.15625 61.5625 13.15625 61.960938 13.15625 C 61.960938 13.289062 61.960938 13.425781 61.960938 13.566406 C 61.726562 13.566406 61.492188 13.566406 61.25 13.566406 C 61.25 13.699219 61.25 13.828125 61.25 13.964844 C 61.476562 13.964844 61.699219 13.964844 61.929688 13.964844 C 61.929688 14.097656 61.929688 14.234375 61.929688 14.375 C 61.707031 14.375 61.480469 14.375 61.25 14.375 C 61.25 14.503906 61.25 14.636719 61.25 14.769531 C 61.484375 14.769531 61.71875 14.769531 61.960938 14.769531 C 61.960938 14.90625 61.960938 15.042969 61.960938 15.183594 C 61.574219 15.183594 61.191406 15.183594 60.796875 15.183594 C 60.796875 14.511719 60.796875 13.84375 60.796875 13.15625 Z M 60.796875 13.15625 "/><path style=" stroke:none;fill-rule:nonzero;fill:#020202;fill-opacity:1;" d="M 50.277344 13.296875 C 50.269531 13.351562 50.253906 13.390625 50.230469 13.441406 C 50.222656 13.453125 50.214844 13.464844 50.207031 13.480469 C 50.195312 13.5 50.195312 13.5 50.183594 13.519531 C 50.179688 13.535156 50.171875 13.550781 50.164062 13.5625 C 50.144531 13.597656 50.125 13.632812 50.109375 13.664062 C 50.027344 13.652344 49.960938 13.617188 49.886719 13.585938 C 49.78125 13.542969 49.65625 13.53125 49.546875 13.570312 C 49.488281 13.609375 49.488281 13.609375 49.460938 13.667969 C 49.460938 13.6875 49.460938 13.6875 49.460938 13.707031 C 49.460938 13.71875 49.460938 13.730469 49.460938 13.742188 C 49.476562 13.800781 49.519531 13.832031 49.570312 13.863281 C 49.65625 13.910156 49.742188 13.949219 49.832031 13.988281 C 50.027344 14.078125 50.226562 14.1875 50.316406 14.398438 C 50.339844 14.464844 50.34375 14.523438 50.339844 14.589844 C 50.339844 14.601562 50.339844 14.613281 50.339844 14.628906 C 50.339844 14.722656 50.324219 14.800781 50.277344 14.882812 C 50.273438 14.894531 50.265625 14.90625 50.261719 14.917969 C 50.167969 15.082031 50 15.152344 49.828125 15.203125 C 49.507812 15.269531 49.175781 15.199219 48.902344 15.027344 C 48.875 15.003906 48.847656 14.980469 48.816406 14.957031 C 48.859375 14.863281 48.910156 14.777344 48.960938 14.691406 C 48.96875 14.679688 48.972656 14.671875 48.980469 14.660156 C 48.996094 14.632812 48.996094 14.632812 49.03125 14.585938 C 49.09375 14.585938 49.109375 14.597656 49.160156 14.632812 C 49.292969 14.71875 49.410156 14.773438 49.566406 14.773438 C 49.578125 14.773438 49.585938 14.777344 49.597656 14.777344 C 49.675781 14.777344 49.734375 14.757812 49.792969 14.707031 C 49.820312 14.671875 49.824219 14.640625 49.832031 14.597656 C 49.824219 14.542969 49.8125 14.511719 49.773438 14.472656 C 49.703125 14.417969 49.621094 14.382812 49.542969 14.347656 C 49.328125 14.242188 49.109375 14.128906 49.011719 13.894531 C 48.96875 13.757812 48.984375 13.597656 49.042969 13.472656 C 49.136719 13.3125 49.269531 13.203125 49.445312 13.140625 C 49.726562 13.078125 50.035156 13.144531 50.277344 13.296875 Z M 50.277344 13.296875 "/><path style=" stroke:none;fill-rule:nonzero;fill:#020202;fill-opacity:1;" d="M 60.230469 13.167969 C 60.253906 13.175781 60.253906 13.175781 60.277344 13.1875 C 60.359375 13.214844 60.4375 13.25 60.511719 13.296875 C 60.503906 13.34375 60.484375 13.382812 60.464844 13.425781 C 60.457031 13.441406 60.449219 13.457031 60.441406 13.46875 C 60.429688 13.492188 60.429688 13.492188 60.421875 13.511719 C 60.414062 13.527344 60.40625 13.542969 60.398438 13.558594 C 60.378906 13.59375 60.363281 13.628906 60.34375 13.664062 C 60.261719 13.652344 60.195312 13.617188 60.121094 13.585938 C 60.019531 13.542969 59.894531 13.527344 59.789062 13.570312 C 59.742188 13.597656 59.714844 13.617188 59.691406 13.664062 C 59.683594 13.734375 59.695312 13.765625 59.734375 13.820312 C 59.773438 13.851562 59.773438 13.851562 59.816406 13.875 C 59.828125 13.878906 59.835938 13.882812 59.84375 13.890625 C 59.917969 13.929688 60 13.964844 60.078125 14 C 60.179688 14.042969 60.269531 14.089844 60.355469 14.160156 C 60.371094 14.171875 60.386719 14.183594 60.402344 14.195312 C 60.488281 14.277344 60.570312 14.378906 60.574219 14.503906 C 60.574219 14.527344 60.574219 14.546875 60.574219 14.570312 C 60.574219 14.582031 60.574219 14.59375 60.574219 14.601562 C 60.574219 14.761719 60.523438 14.90625 60.414062 15.023438 C 60.246094 15.179688 60.007812 15.21875 59.785156 15.21875 C 59.769531 15.21875 59.75 15.214844 59.734375 15.214844 C 59.480469 15.210938 59.246094 15.125 59.054688 14.957031 C 59.074219 14.902344 59.097656 14.855469 59.125 14.808594 C 59.132812 14.796875 59.140625 14.78125 59.148438 14.769531 C 59.15625 14.753906 59.167969 14.738281 59.175781 14.722656 C 59.183594 14.710938 59.191406 14.695312 59.203125 14.679688 C 59.222656 14.644531 59.246094 14.609375 59.265625 14.574219 C 59.3125 14.582031 59.339844 14.597656 59.378906 14.625 C 59.515625 14.71875 59.636719 14.773438 59.804688 14.773438 C 59.8125 14.773438 59.824219 14.777344 59.832031 14.777344 C 59.902344 14.777344 59.945312 14.765625 60.003906 14.730469 C 60.042969 14.683594 60.058594 14.652344 60.066406 14.59375 C 60.058594 14.53125 60.035156 14.5 59.988281 14.460938 C 59.9375 14.425781 59.886719 14.402344 59.832031 14.375 C 59.804688 14.359375 59.773438 14.34375 59.746094 14.332031 C 59.71875 14.316406 59.691406 14.304688 59.664062 14.289062 C 59.464844 14.191406 59.328125 14.085938 59.238281 13.878906 C 59.199219 13.71875 59.222656 13.566406 59.304688 13.425781 C 59.398438 13.285156 59.542969 13.171875 59.710938 13.132812 C 59.875 13.105469 60.070312 13.113281 60.230469 13.167969 Z M 60.230469 13.167969 "/><path style=" stroke:none;fill-rule:nonzero;fill:#030303;fill-opacity:1;" d="M 52.714844 13.15625 C 53.105469 13.15625 53.492188 13.15625 53.894531 13.15625 C 53.894531 13.289062 53.894531 13.425781 53.894531 13.566406 C 53.660156 13.566406 53.425781 13.566406 53.183594 13.566406 C 53.183594 13.699219 53.183594 13.828125 53.183594 13.964844 C 53.398438 13.964844 53.613281 13.964844 53.835938 13.964844 C 53.835938 14.097656 53.835938 14.234375 53.835938 14.375 C 53.621094 14.375 53.40625 14.375 53.183594 14.375 C 53.183594 14.640625 53.183594 14.90625 53.183594 15.183594 C 53.03125 15.183594 52.875 15.183594 52.714844 15.183594 C 52.714844 14.511719 52.714844 13.84375 52.714844 13.15625 Z M 52.714844 13.15625 "/><path style=" stroke:none;fill-rule:nonzero;fill:#fcfcfc;fill-opacity:1;" d="M 65.417969 13.605469 C 65.554688 13.691406 65.644531 13.820312 65.6875 13.976562 C 65.695312 14.015625 65.699219 14.050781 65.703125 14.089844 C 65.703125 14.105469 65.703125 14.121094 65.703125 14.132812 C 65.714844 14.332031 65.652344 14.503906 65.523438 14.652344 C 65.429688 14.746094 65.304688 14.773438 65.175781 14.777344 C 65.011719 14.773438 64.898438 14.722656 64.785156 14.601562 C 64.652344 14.445312 64.640625 14.246094 64.65625 14.050781 C 64.679688 13.894531 64.753906 13.738281 64.878906 13.644531 C 65.03125 13.546875 65.25 13.523438 65.417969 13.605469 Z M 65.417969 13.605469 "/><path style=" stroke:none;fill-rule:nonzero;fill:#fdfdfd;fill-opacity:1;" d="M 51.753906 13.625 C 51.839844 13.683594 51.902344 13.757812 51.949219 13.851562 C 51.957031 13.859375 51.960938 13.871094 51.96875 13.882812 C 52.039062 14.039062 52.03125 14.253906 51.980469 14.417969 C 51.96875 14.445312 51.953125 14.476562 51.9375 14.503906 C 51.933594 14.519531 51.925781 14.53125 51.917969 14.546875 C 51.878906 14.617188 51.839844 14.664062 51.769531 14.703125 C 51.753906 14.714844 51.753906 14.714844 51.734375 14.722656 C 51.609375 14.785156 51.464844 14.789062 51.328125 14.761719 C 51.203125 14.71875 51.09375 14.621094 51.03125 14.503906 C 50.980469 14.398438 50.964844 14.289062 50.964844 14.171875 C 50.964844 14.15625 50.964844 14.144531 50.964844 14.128906 C 50.96875 13.949219 51.027344 13.8125 51.152344 13.683594 C 51.3125 13.535156 51.5625 13.515625 51.753906 13.625 Z M 51.753906 13.625 "/><path style=" stroke:none;fill-rule:nonzero;fill:#030303;fill-opacity:1;" d="M 58.429688 13.15625 C 58.582031 13.15625 58.738281 13.15625 58.898438 13.15625 C 58.898438 13.824219 58.898438 14.492188 58.898438 15.183594 C 58.742188 15.183594 58.589844 15.183594 58.429688 15.183594 C 58.429688 14.511719 58.429688 13.84375 58.429688 13.15625 Z M 58.429688 13.15625 "/><path style=" stroke:none;fill-rule:nonzero;fill:#fcfcfc;fill-opacity:1;" d="M 57.082031 13.566406 C 57.261719 13.566406 57.394531 13.582031 57.535156 13.695312 C 57.667969 13.828125 57.734375 13.972656 57.738281 14.160156 C 57.734375 14.328125 57.683594 14.46875 57.574219 14.597656 C 57.410156 14.738281 57.308594 14.769531 57.082031 14.769531 C 57.082031 14.375 57.082031 13.976562 57.082031 13.566406 Z M 57.082031 13.566406 "/><path style=" stroke:none;fill-rule:nonzero;fill:#f6f6f6;fill-opacity:1;" d="M 54.828125 13.777344 C 54.875 13.804688 54.886719 13.859375 54.902344 13.90625 C 54.90625 13.917969 54.910156 13.929688 54.914062 13.941406 C 54.925781 13.964844 54.933594 13.992188 54.941406 14.015625 C 54.957031 14.050781 54.972656 14.089844 54.984375 14.125 C 54.992188 14.152344 55.003906 14.175781 55.011719 14.199219 C 55.015625 14.210938 55.019531 14.21875 55.023438 14.230469 C 55.027344 14.242188 55.03125 14.253906 55.035156 14.261719 C 55.039062 14.273438 55.042969 14.28125 55.046875 14.292969 C 55.054688 14.316406 55.0625 14.347656 55.070312 14.375 C 54.921875 14.375 54.769531 14.375 54.617188 14.375 C 54.632812 14.277344 54.632812 14.277344 54.648438 14.234375 C 54.65625 14.21875 54.65625 14.21875 54.664062 14.203125 C 54.667969 14.191406 54.671875 14.179688 54.675781 14.167969 C 54.679688 14.15625 54.683594 14.148438 54.6875 14.136719 C 54.703125 14.101562 54.714844 14.0625 54.730469 14.027344 C 54.738281 14.003906 54.75 13.980469 54.757812 13.957031 C 54.78125 13.898438 54.804688 13.839844 54.828125 13.777344 Z M 54.828125 13.777344 "/></g></svg>